<svg width="100%" viewBox="0 0 680 680" role="img" xmlns="http://www.w3.org/2000/svg" style="">
  <title style="fill:rgb(0, 0, 0);stroke:none;color:rgb(0, 0, 0);stroke-width:1px;stroke-linecap:butt;stroke-linejoin:miter;opacity:1;font-family:&quot;Anthropic Sans&quot;, -apple-system, BlinkMacSystemFont, &quot;Segoe UI&quot;, sans-serif;font-size:16px;font-weight:400;text-anchor:start;dominant-baseline:auto">Clearleaf icon</title>
  <desc style="fill:rgb(0, 0, 0);stroke:none;color:rgb(0, 0, 0);stroke-width:1px;stroke-linecap:butt;stroke-linejoin:miter;opacity:1;font-family:&quot;Anthropic Sans&quot;, -apple-system, BlinkMacSystemFont, &quot;Segoe UI&quot;, sans-serif;font-size:16px;font-weight:400;text-anchor:start;dominant-baseline:auto">Clearleaf leaf mark icon only, suitable for use as a favicon.</desc>

  

  <!-- Rounded background pill -->
  <rect x="140" y="140" width="400" height="400" rx="90" fill="#E4D6A9" style="fill:rgb(228, 214, 169);stroke:none;color:rgb(0, 0, 0);stroke-width:1px;stroke-linecap:butt;stroke-linejoin:miter;opacity:1;font-family:&quot;Anthropic Sans&quot;, -apple-system, BlinkMacSystemFont, &quot;Segoe UI&quot;, sans-serif;font-size:16px;font-weight:400;text-anchor:start;dominant-baseline:auto"/>

  <!-- Shadow leaf (back) -->
  <path d="M400 490 C400 490 270 450 264 330 C258 230 330 190 370 186 C410 182 480 218 484 318 C488 418 412 462 400 490Z" fill="#995F2F" opacity="0.3" style="fill:rgb(153, 95, 47);stroke:none;color:rgb(0, 0, 0);stroke-width:1px;stroke-linecap:butt;stroke-linejoin:miter;opacity:0.3;font-family:&quot;Anthropic Sans&quot;, -apple-system, BlinkMacSystemFont, &quot;Segoe UI&quot;, sans-serif;font-size:16px;font-weight:400;text-anchor:start;dominant-baseline:auto"/>

  <!-- Main leaf -->
  <path d="M340 480 C340 480 210 438 204 318 C198 216 270 176 310 172 C350 168 422 206 426 308 C430 410 356 454 340 480Z" fill="#622B14" style="fill:rgb(98, 43, 20);stroke:none;color:rgb(0, 0, 0);stroke-width:1px;stroke-linecap:butt;stroke-linejoin:miter;opacity:1;font-family:&quot;Anthropic Sans&quot;, -apple-system, BlinkMacSystemFont, &quot;Segoe UI&quot;, sans-serif;font-size:16px;font-weight:400;text-anchor:start;dominant-baseline:auto"/>

  <!-- Leaf inner shading -->
  <path d="M334 466 C334 466 230 418 226 318 C222 236 274 200 308 198 C324 197 344 206 358 222 C340 216 310 224 292 252 C270 284 278 370 334 466Z" fill="#7a3318" style="fill:rgb(122, 51, 24);stroke:none;color:rgb(0, 0, 0);stroke-width:1px;stroke-linecap:butt;stroke-linejoin:miter;opacity:1;font-family:&quot;Anthropic Sans&quot;, -apple-system, BlinkMacSystemFont, &quot;Segoe UI&quot;, sans-serif;font-size:16px;font-weight:400;text-anchor:start;dominant-baseline:auto"/>

  <!-- Center vein -->
  <path d="M334 466 C326 420 308 356 314 298 C320 248 340 210 310 172" fill="none" stroke="#E4D6A9" stroke-width="5" stroke-linecap="round" opacity="0.55" style="fill:none;stroke:rgb(228, 214, 169);color:rgb(0, 0, 0);stroke-width:5px;stroke-linecap:round;stroke-linejoin:miter;opacity:0.55;font-family:&quot;Anthropic Sans&quot;, -apple-system, BlinkMacSystemFont, &quot;Segoe UI&quot;, sans-serif;font-size:16px;font-weight:400;text-anchor:start;dominant-baseline:auto"/>

  <!-- Side veins -->
  <path d="M322 370 C346 350 374 346 398 350" fill="none" stroke="#E4D6A9" stroke-width="3.5" stroke-linecap="round" opacity="0.4" style="fill:none;stroke:rgb(228, 214, 169);color:rgb(0, 0, 0);stroke-width:3.5px;stroke-linecap:round;stroke-linejoin:miter;opacity:0.4;font-family:&quot;Anthropic Sans&quot;, -apple-system, BlinkMacSystemFont, &quot;Segoe UI&quot;, sans-serif;font-size:16px;font-weight:400;text-anchor:start;dominant-baseline:auto"/>
  <path d="M316 320 C338 296 366 292 388 294" fill="none" stroke="#E4D6A9" stroke-width="3.5" stroke-linecap="round" opacity="0.38" style="fill:none;stroke:rgb(228, 214, 169);color:rgb(0, 0, 0);stroke-width:3.5px;stroke-linecap:round;stroke-linejoin:miter;opacity:0.38;font-family:&quot;Anthropic Sans&quot;, -apple-system, BlinkMacSystemFont, &quot;Segoe UI&quot;, sans-serif;font-size:16px;font-weight:400;text-anchor:start;dominant-baseline:auto"/>
  <path d="M314 272 C334 250 358 248 376 252" fill="none" stroke="#E4D6A9" stroke-width="3" stroke-linecap="round" opacity="0.32" style="fill:none;stroke:rgb(228, 214, 169);color:rgb(0, 0, 0);stroke-width:3px;stroke-linecap:round;stroke-linejoin:miter;opacity:0.32;font-family:&quot;Anthropic Sans&quot;, -apple-system, BlinkMacSystemFont, &quot;Segoe UI&quot;, sans-serif;font-size:16px;font-weight:400;text-anchor:start;dominant-baseline:auto"/>

  <!-- Accent leaf -->
  <path d="M406 444 C406 444 442 410 452 370 C462 330 446 306 428 306 C410 306 394 330 390 370 C384 406 400 436 406 444Z" fill="#995F2F" opacity="0.75" style="fill:rgb(153, 95, 47);stroke:none;color:rgb(0, 0, 0);stroke-width:1px;stroke-linecap:butt;stroke-linejoin:miter;opacity:0.75;font-family:&quot;Anthropic Sans&quot;, -apple-system, BlinkMacSystemFont, &quot;Segoe UI&quot;, sans-serif;font-size:16px;font-weight:400;text-anchor:start;dominant-baseline:auto"/>
</svg>